<?xml version="1.0" encoding="utf-8"?>
<!-- Generator: Adobe Illustrator 23.0.2, SVG Export Plug-In . SVG Version: 6.00 Build 0)  -->
<svg version="1.1" id="Warstwa_1" xmlns="http://www.w3.org/2000/svg" x="0px" y="0px"
     viewBox="0 0 249.6 66.7" style="enable-background:new 0 0 249.6 66.7;" xml:space="preserve">
<style type="text/css">
	.st0{fill:#FFFFFF;stroke:#FFFFFF;stroke-miterlimit:10;}
	.st1{fill:#FFFFFF;stroke:#FFFFFF;stroke-width:0.25;stroke-miterlimit:10;}
</style>
    <g>
	<g>
		<path class="st0" d="M2.6,5.9V3h10.7v2.9c0,0.3-0.1,0.5-0.3,0.7s-0.5,0.3-0.7,0.3c-0.3,0-0.5-0.1-0.8-0.3
			c-0.2-0.2-0.3-0.5-0.3-0.7V5.1H9v13.5c0,0.3-0.1,0.5-0.3,0.7S8.2,19.6,8,19.6c-0.3,0-0.6-0.1-0.8-0.3c-0.2-0.2-0.3-0.5-0.3-0.7
			V5.1H4.7v0.7c0,0.3-0.1,0.5-0.3,0.7C4.2,6.7,3.9,6.8,3.7,6.8C3.4,6.8,3.2,6.7,3,6.5C2.7,6.4,2.6,6.2,2.6,5.9z"/>
        <path class="st0" d="M14.3,18.7V4.1c0-0.3,0.1-0.5,0.3-0.7s0.5-0.3,0.7-0.3c0.3,0,0.5,0.1,0.7,0.3c0.2,0.2,0.3,0.5,0.3,0.7v5.3
			L18,8.3c0.8-0.5,1.5-0.7,2.1-0.7h1.3c0.9,0,1.6,0.3,2.2,0.9c0.6,0.6,0.9,1.4,1,2.2l0.3,7.9c0,0.3-0.1,0.5-0.3,0.7
			c-0.2,0.2-0.5,0.3-0.8,0.3s-0.5-0.1-0.7-0.3s-0.3-0.5-0.3-0.7l-0.3-7.9c0-0.3-0.1-0.5-0.3-0.7c-0.2-0.2-0.5-0.3-0.8-0.3h-1.2
			c-0.3,0-0.6,0.1-0.9,0.3l-3,2v6.7c0,0.3-0.1,0.5-0.3,0.7c-0.2,0.2-0.5,0.3-0.7,0.3c-0.3,0-0.5-0.1-0.7-0.3
			C14.4,19.2,14.3,19,14.3,18.7z"/>
        <path class="st0" d="M36.7,11.6v2.6c0,0.3-0.1,0.5-0.3,0.7s-0.5,0.3-0.7,0.3h-7.5v0.6c0,0.4,0.2,0.7,0.5,0.9l0.6,0.5
			c0.3,0.3,0.7,0.4,1,0.4h5.4c0.3,0,0.5,0.1,0.7,0.3s0.3,0.5,0.3,0.7c0,0.3-0.1,0.5-0.3,0.7s-0.5,0.3-0.7,0.3H30
			c-0.4,0-0.8-0.1-1.2-0.2s-0.7-0.3-0.9-0.5L27,18.2c-0.3-0.2-0.5-0.6-0.7-1S26,16.4,26,16v-4.8c0-0.3,0.1-0.7,0.3-1.1
			c0.2-0.5,0.5-0.8,0.8-1.1L28,8.3c0.6-0.5,1.2-0.7,1.9-0.7h3c0.7,0,1.5,0.3,2.1,0.9l0.8,0.8C36.4,9.8,36.7,10.5,36.7,11.6z
			 M28.2,11.4V13h6.4v-1.5c0-0.4-0.1-0.7-0.4-0.9l-0.6-0.5c-0.3-0.3-0.6-0.4-0.9-0.4H30c-0.3,0-0.6,0.1-0.9,0.3l-0.6,0.5
			C28.3,10.8,28.2,11.1,28.2,11.4z"/>
        <path class="st0" d="M37.7,18.7v-10c0-0.3,0.1-0.5,0.3-0.8c0.2-0.2,0.5-0.3,0.7-0.3c0.3,0,0.5,0.1,0.7,0.3
			c0.2,0.2,0.3,0.5,0.3,0.8V10l1.7-1.5c0.7-0.6,1.4-0.9,2.1-0.9H45c0.9,0,1.6,0.3,2.2,0.9s0.9,1.4,0.9,2.2v0.6
			c0,0.3-0.1,0.6-0.3,0.8s-0.5,0.3-0.7,0.3s-0.5-0.1-0.7-0.3s-0.3-0.5-0.3-0.7v-0.6c0-0.3-0.1-0.5-0.3-0.7s-0.5-0.3-0.7-0.3h-1.4
			c-0.3,0-0.6,0.2-1,0.5l-3,2.6v5.9c0,0.3-0.1,0.5-0.3,0.7s-0.5,0.3-0.7,0.3c-0.3,0-0.5-0.1-0.7-0.3C37.8,19.2,37.7,19,37.7,18.7z"
        />
        <path class="st0" d="M60.1,11.6v2.6c0,0.3-0.1,0.5-0.3,0.7s-0.5,0.3-0.7,0.3h-7.5v0.6c0,0.4,0.2,0.7,0.5,0.9l0.6,0.5
			c0.3,0.3,0.7,0.4,1,0.4H59c0.3,0,0.5,0.1,0.7,0.3s0.3,0.5,0.3,0.7c0,0.3-0.1,0.5-0.3,0.7s-0.5,0.3-0.7,0.3h-5.6
			c-0.4,0-0.8-0.1-1.2-0.2s-0.7-0.3-0.9-0.5l-0.9-0.8c-0.3-0.2-0.5-0.6-0.7-1s-0.3-0.8-0.3-1.2v-4.8c0-0.3,0.1-0.7,0.3-1.1
			c0.2-0.5,0.5-0.8,0.8-1.1l0.9-0.7c0.6-0.5,1.2-0.7,1.9-0.7h3c0.7,0,1.5,0.3,2.1,0.9l0.8,0.8C59.8,9.8,60.1,10.5,60.1,11.6z
			 M51.6,11.4V13H58v-1.5c0-0.4-0.1-0.7-0.4-0.9L57,10.1c-0.3-0.3-0.6-0.4-0.9-0.4h-2.7c-0.3,0-0.6,0.1-0.9,0.3L52,10.6
			C51.7,10.8,51.6,11.1,51.6,11.4z"/>
        <path class="st0" d="M69.6,9.6c0,0.3-0.1,0.5-0.3,0.7s-0.5,0.3-0.7,0.3c-0.3,0-0.5-0.1-0.7-0.3s-0.3-0.5-0.3-0.7V5.2h-3.2
			c-0.3,0-0.5-0.1-0.7-0.3s-0.3-0.5-0.3-0.8s0.1-0.5,0.3-0.7s0.5-0.3,0.7-0.3h4.3c0.3,0,0.5,0.1,0.7,0.3s0.3,0.5,0.3,0.8v5.4H69.6z"
        />
        <path class="st0" d="M75.8,7.6h4.8c0.8,0,1.4,0.2,2,0.7c0.6,0.4,0.9,0.9,0.9,1.3c0,0.3-0.1,0.5-0.3,0.7c-0.2,0.2-0.5,0.3-0.7,0.3
			c-0.3,0-0.6-0.2-0.9-0.5S81,9.6,80.7,9.6h-4.8c-0.5,0-0.7,0.2-0.7,0.6c0,0.3,0.2,0.5,0.5,0.6l5.6,2.5c0.6,0.3,1,0.7,1.4,1.2
			c0.4,0.6,0.5,1.2,0.5,1.9c0,0.9-0.3,1.7-1,2.3s-1.4,0.9-2.2,0.9h-4.3c-0.7,0-1.4-0.2-2.1-0.7c-0.6-0.4-1-0.9-1-1.3
			c0-0.3,0.1-0.5,0.3-0.7c0.2-0.2,0.5-0.3,0.8-0.3s0.6,0.2,0.9,0.5s0.7,0.5,1.3,0.5h3.9c0.3,0,0.6-0.1,0.8-0.4
			c0.2-0.2,0.3-0.5,0.3-0.8c0-0.5-0.2-0.8-0.7-1l-5.7-2.6c-0.5-0.2-1-0.6-1.3-1.1s-0.4-0.9-0.4-1.4c0-0.8,0.3-1.4,0.8-2
			C74.4,7.9,75,7.6,75.8,7.6z"/>
        <path class="st0" d="M101.3,10l-2.9,1.9v6.8c0,0.3-0.1,0.5-0.3,0.7c-0.2,0.2-0.5,0.3-0.7,0.3c-0.3,0-0.5-0.1-0.7-0.3
			s-0.3-0.5-0.3-0.7v-10c0-0.3,0.1-0.5,0.3-0.8c0.2-0.2,0.5-0.3,0.7-0.3c0.3,0,0.5,0.1,0.7,0.3c0.2,0.2,0.3,0.5,0.3,0.8v0.6l1.9-1.2
			c0.6-0.4,1.4-0.6,2.2-0.6h1c0.8,0,1.6,0.3,2.2,0.9c0.6,0.6,0.9,1.3,1,2.2l0.3,8c0,0.3-0.1,0.5-0.3,0.7c-0.2,0.2-0.5,0.3-0.8,0.3
			s-0.5-0.1-0.7-0.3s-0.3-0.4-0.3-0.8l-0.3-7.9c0-0.7-0.4-1.1-1.2-1.1h-1C102,9.7,101.6,9.8,101.3,10z"/>
        <path class="st0" d="M118.6,11.4v4.5c0,0.9-0.4,1.8-1.3,2.6s-1.8,1.2-2.8,1.2H112c-1,0-1.9-0.4-2.8-1.2s-1.3-1.7-1.3-2.6v-4.5
			c0-0.9,0.4-1.8,1.3-2.6s1.8-1.2,2.8-1.2h2.5c0.9,0,1.9,0.4,2.8,1.2S118.6,10.4,118.6,11.4z M110.1,11.5v4.3c0,0.4,0.1,0.7,0.4,0.9
			l0.8,0.7c0.2,0.2,0.4,0.2,0.7,0.2h2.5c0.4,0,0.7-0.1,1-0.4l0.6-0.6c0.3-0.2,0.4-0.5,0.4-0.8v-4.3c0-0.4-0.1-0.7-0.4-0.9l-0.7-0.6
			c-0.3-0.2-0.5-0.3-0.9-0.3h-2.2c-0.5,0-0.8,0.1-1.1,0.3l-0.7,0.6C110.2,10.8,110.1,11.1,110.1,11.5z"/>
        <path class="st0" d="M133.5,18.5v4.7c0,0.3-0.1,0.6-0.3,0.8s-0.5,0.3-0.7,0.3s-0.5-0.1-0.8-0.3c-0.2-0.2-0.3-0.5-0.3-0.8V8.1
			c0-0.3,0.1-0.5,0.3-0.7s0.5-0.3,0.8-0.3s0.5,0.1,0.7,0.3s0.3,0.5,0.3,0.7v0.7c1-1.1,2-1.7,3-1.7h0.5c0.7,0,1.4,0.3,2.1,0.8
			l1.8,1.5c0.8,0.7,1.2,1.5,1.2,2.6v3.3c0,1-0.4,1.9-1.2,2.6l-1.7,1.5c-0.6,0.5-1.3,0.8-2.2,0.8h-0.5c-0.8,0-1.5-0.3-2.1-0.9
			L133.5,18.5z M136.5,18.1h0.5c0.3,0,0.5-0.1,0.8-0.4l1.6-1.4c0.3-0.2,0.4-0.5,0.4-0.9V12c0-0.3-0.2-0.6-0.5-0.9l-1.8-1.5
			c-0.2-0.2-0.4-0.3-0.7-0.3h-0.6c-0.2,0-0.5,0.2-0.9,0.6l-1.6,1.6c-0.3,0.3-0.4,0.6-0.4,0.9v2.7c0,0.3,0.2,0.6,0.5,1l1.5,1.5
			C135.9,17.9,136.2,18.1,136.5,18.1z"/>
        <path class="st0" d="M151.6,19.7h-6.4c-0.3,0-0.5-0.1-0.7-0.3s-0.3-0.5-0.3-0.8s0.1-0.5,0.3-0.7s0.5-0.3,0.7-0.3h2.1V5.1h-2.1
			c-0.3,0-0.5-0.1-0.7-0.3s-0.3-0.5-0.3-0.7c0-0.3,0.1-0.5,0.3-0.7s0.5-0.3,0.7-0.3h3.2c0.3,0,0.5,0.1,0.7,0.3s0.3,0.5,0.3,0.7v13.5
			h2.1c0.3,0,0.5,0.1,0.7,0.3s0.3,0.5,0.3,0.7c0,0.3-0.1,0.5-0.3,0.8C152.2,19.6,151.9,19.7,151.6,19.7z"/>
        <path class="st0" d="M157.9,12.1h4.1c0.2,0,0.6,0.1,1,0.2v-1.5c0-0.3-0.1-0.5-0.3-0.7s-0.5-0.3-0.8-0.3h-4c-0.3,0-0.5-0.1-0.7-0.3
			s-0.3-0.5-0.3-0.7c0-0.3,0.1-0.5,0.3-0.7c0.2-0.2,0.5-0.3,0.8-0.3h4c0.9,0,1.6,0.3,2.2,0.9c0.6,0.6,0.9,1.4,1,2.3l0.3,7.9
			c0,0.3-0.1,0.5-0.3,0.7s-0.5,0.3-0.7,0.3c-0.3,0-0.6-0.1-0.8-0.3s-0.3-0.5-0.3-0.7l-1.8,1.1H158c-0.9,0-1.6-0.3-2.3-0.9
			s-0.9-1.4-0.9-2.3v-1.5c0-0.9,0.3-1.6,0.9-2.3C156.3,12.4,157.1,12.1,157.9,12.1z M163.2,16.2l-0.1-0.9c0-0.3-0.1-0.6-0.3-0.8
			s-0.4-0.3-0.7-0.3h-4.2c-0.3,0-0.5,0.1-0.8,0.3c-0.2,0.2-0.3,0.5-0.3,0.7v1.2c0,0.3,0.1,0.5,0.3,0.7s0.5,0.3,0.7,0.3h3L163.2,16.2
			z"/>
        <path class="st0" d="M176.1,19.7h-4.5c-0.8,0-1.5-0.2-2-0.7l-2.1-1.8c-0.7-0.5-1-1.3-1-2.2v-2.7c0-0.9,0.3-1.7,1.1-2.3l1.9-1.6
			c0.6-0.5,1.2-0.7,1.9-0.7h4.7c0.3,0,0.5,0.1,0.7,0.3c0.2,0.2,0.3,0.5,0.3,0.7c0,0.3-0.1,0.6-0.3,0.8s-0.5,0.3-0.7,0.3h-4.5
			c-0.3,0-0.6,0.1-0.8,0.3l-1.7,1.4c-0.3,0.2-0.4,0.5-0.4,0.9V15c0,0.3,0.1,0.5,0.3,0.7l1.9,1.6c0.2,0.2,0.5,0.3,0.9,0.3h4.3
			c0.3,0,0.5,0.1,0.7,0.3s0.3,0.5,0.3,0.7c0,0.3-0.1,0.5-0.3,0.7C176.7,19.6,176.4,19.7,176.1,19.7z"/>
        <path class="st0" d="M188.8,11.6v2.6c0,0.3-0.1,0.5-0.3,0.7s-0.5,0.3-0.7,0.3h-7.5v0.6c0,0.4,0.2,0.7,0.5,0.9l0.6,0.5
			c0.3,0.3,0.7,0.4,1,0.4h5.4c0.3,0,0.5,0.1,0.7,0.3s0.3,0.5,0.3,0.7c0,0.3-0.1,0.5-0.3,0.7s-0.5,0.3-0.7,0.3h-5.6
			c-0.4,0-0.8-0.1-1.2-0.2c-0.4-0.2-0.7-0.3-0.9-0.5l-0.9-0.8c-0.3-0.2-0.5-0.6-0.7-1s-0.3-0.8-0.3-1.2v-4.8c0-0.3,0.1-0.7,0.3-1.1
			c0.2-0.5,0.5-0.8,0.8-1.1l0.9-0.7c0.6-0.5,1.2-0.7,1.9-0.7h3c0.7,0,1.5,0.3,2.1,0.9l0.8,0.9C188.6,9.8,188.8,10.5,188.8,11.6z
			 M180.3,11.4V13h6.4v-1.5c0-0.4-0.1-0.7-0.4-0.9l-0.6-0.5c-0.3-0.3-0.6-0.4-0.9-0.4h-2.7c-0.3,0-0.6,0.1-0.9,0.3l-0.6,0.5
			C180.5,10.8,180.3,11.1,180.3,11.4z"/>
        <path class="st0" d="M210.1,19.7h-6.4c-0.3,0-0.5-0.1-0.7-0.3s-0.3-0.5-0.3-0.8s0.1-0.5,0.3-0.7s0.5-0.3,0.7-0.3h2.1V5.1h-2.1
			c-0.3,0-0.5-0.1-0.7-0.3s-0.3-0.5-0.3-0.7c0-0.3,0.1-0.5,0.3-0.7s0.5-0.3,0.7-0.3h3.2c0.3,0,0.5,0.1,0.7,0.3s0.3,0.5,0.3,0.7v13.5
			h2.1c0.3,0,0.5,0.1,0.7,0.3s0.3,0.5,0.3,0.7c0,0.3-0.1,0.5-0.3,0.8C210.7,19.6,210.4,19.7,210.1,19.7z"/>
        <path class="st0" d="M221.8,19.7h-6.4c-0.3,0-0.5-0.1-0.7-0.3s-0.3-0.5-0.3-0.7c0-0.3,0.1-0.5,0.3-0.7s0.5-0.3,0.7-0.3h2.2V9.8
			h-2.1c-0.3,0-0.5-0.1-0.7-0.3s-0.3-0.5-0.3-0.7c0-0.3,0.1-0.5,0.3-0.8c0.2-0.2,0.5-0.3,0.7-0.3h3.2c0.3,0,0.5,0.1,0.7,0.3
			c0.2,0.2,0.3,0.5,0.3,0.8v9h2.1c0.3,0,0.5,0.1,0.8,0.3c0.2,0.2,0.3,0.5,0.3,0.7s-0.1,0.5-0.3,0.7S222.1,19.7,221.8,19.7z
			 M217.5,2.1h1.1c0.3,0,0.5,0.1,0.7,0.3s0.3,0.5,0.3,0.7V4c0,0.3-0.1,0.5-0.3,0.8c-0.2,0.2-0.5,0.3-0.7,0.3h-1.1
			c-0.3,0-0.6-0.1-0.8-0.3s-0.3-0.5-0.3-0.7V3.2c0-0.3,0.1-0.5,0.3-0.7S217.2,2.1,217.5,2.1z"/>
        <path class="st0" d="M225,18.7V4.1c0-0.3,0.1-0.6,0.3-0.8S225.8,3,226,3c0.3,0,0.5,0.1,0.8,0.3c0.2,0.2,0.3,0.5,0.3,0.8v8.6
			l5.7-4.8c0.2-0.2,0.5-0.3,0.8-0.3s0.6,0.1,0.8,0.3c0.2,0.2,0.3,0.5,0.3,0.8s-0.1,0.6-0.3,0.7l-4.4,3.7l5.5,4.8
			c0.2,0.2,0.3,0.4,0.3,0.7s-0.1,0.5-0.3,0.7s-0.4,0.3-0.7,0.3s-0.6-0.1-0.8-0.3l-5.6-4.9l-1.1,0.9v3.2c0,0.3-0.1,0.5-0.3,0.7
			s-0.5,0.3-0.8,0.3s-0.5-0.1-0.7-0.3C225.1,19.2,225,19,225,18.7z"/>
        <path class="st0" d="M247.4,11.6v2.6c0,0.3-0.1,0.5-0.3,0.7s-0.5,0.3-0.7,0.3h-7.5v0.6c0,0.4,0.2,0.7,0.5,0.9l0.6,0.5
			c0.3,0.3,0.7,0.4,1,0.4h5.4c0.3,0,0.5,0.1,0.7,0.3s0.3,0.5,0.3,0.7c0,0.3-0.1,0.5-0.3,0.7s-0.5,0.3-0.7,0.3h-5.6
			c-0.4,0-0.8-0.1-1.2-0.2c-0.4-0.2-0.7-0.3-0.9-0.5l-0.9-0.8c-0.3-0.2-0.5-0.6-0.7-1s-0.3-0.8-0.3-1.2v-4.8c0-0.3,0.1-0.7,0.3-1.1
			c0.2-0.5,0.5-0.8,0.8-1.1l0.9-0.7c0.6-0.5,1.2-0.7,1.9-0.7h3c0.7,0,1.5,0.3,2.1,0.9l0.8,0.8C247.1,9.8,247.4,10.5,247.4,11.6z
			 M238.9,11.4V13h6.4v-1.5c0-0.4-0.1-0.7-0.4-0.9l-0.6-0.5c-0.3-0.3-0.6-0.4-0.9-0.4h-2.7c-0.3,0-0.6,0.1-0.9,0.3l-0.6,0.5
			C239,10.8,238.9,11.1,238.9,11.4z"/>
	</g>
        <g>
		<path class="st1" d="M7,60.4h6.3V36.2H7.1c-0.6,0-1.1-0.2-1.5-0.6S5,34.7,5,34.1s0.2-1.1,0.6-1.5c0.4-0.3,0.9-0.5,1.5-0.5h10.3
			v28.3h4.1v-8.6c0-0.6,0.2-1,0.6-1.4s0.9-0.6,1.5-0.6s1.1,0.2,1.5,0.6s0.6,0.9,0.6,1.5v10.6c0,0.6-0.2,1.1-0.6,1.5
			c-0.4,0.4-0.9,0.6-1.5,0.6H7c-0.6,0-1.1-0.2-1.5-0.6c-0.4-0.4-0.6-0.9-0.6-1.5s0.2-1,0.6-1.4C5.9,60.6,6.4,60.4,7,60.4z"/>
            <path class="st1" d="M51.4,64.5H32.7V50.4c0-1.1,0.4-2.1,1.2-2.9s1.8-1.2,2.9-1.2h12.5v-10H34.7c-0.6,0-1.1-0.2-1.5-0.6
			s-0.6-0.9-0.6-1.5s0.2-1.1,0.6-1.5c0.4-0.4,0.9-0.6,1.5-0.6h14.7c1.1,0,2.1,0.4,2.9,1.2c0.8,0.8,1.2,1.8,1.2,2.9v10
			c0,1.2-0.4,2.1-1.2,2.9s-1.8,1.2-2.9,1.2H36.9v10.1h14.6c0.6,0,1,0.2,1.4,0.6s0.6,0.9,0.6,1.5s-0.2,1.1-0.6,1.5
			C52.5,64.4,52,64.5,51.4,64.5z"/>
            <path class="st1" d="M60.4,36v-1.8c0-0.6,0.2-1.1,0.6-1.5c0.4-0.4,0.9-0.6,1.5-0.6h18.6v12.6c0,0.7-0.3,1.2-0.8,1.7l-7.6,6.5v9.6
			c0,0.6-0.2,1.1-0.6,1.5c-0.4,0.4-0.9,0.6-1.5,0.6s-1.1-0.2-1.5-0.6c-0.4-0.4-0.6-0.9-0.6-1.4V52.1c0-0.8,0.2-1.4,0.7-1.8l7.6-6.4
			v-7.6H64.5c-0.3,1.2-1,1.8-2.1,1.8c-0.6,0-1.1-0.2-1.5-0.6C60.6,37,60.4,36.5,60.4,36z"/>
            <path class="st1" d="M96.5,51.6h4.2c0.6,0,1,0.2,1.4,0.6s0.6,0.9,0.6,1.5v3.5c0,0.6-0.2,1.1-0.6,1.5s-0.9,0.6-1.5,0.6h-4.2
			c-0.6,0-1.1-0.2-1.5-0.6s-0.6-0.9-0.6-1.4v-3.5c0-0.6,0.2-1.1,0.6-1.5C95.4,51.8,95.9,51.6,96.5,51.6z"/>
            <path class="st1" d="M115.9,60.6V36c0-1.1,0.4-2,1.2-2.8s1.7-1.2,2.8-1.2h12.8c1.1,0,2,0.4,2.7,1.2c0.8,0.8,1.2,1.7,1.2,2.8v24.6
			c0,1.1-0.4,2-1.2,2.8c-0.8,0.8-1.7,1.2-2.8,1.2h-12.8c-1.1,0-2-0.4-2.8-1.2C116.3,62.6,115.9,61.7,115.9,60.6z M132.5,60.4V36.2
			H120v24.2C120,60.4,132.5,60.4,132.5,60.4z"/>
            <path class="st1" d="M151.9,51.6h4.2c0.6,0,1,0.2,1.4,0.6s0.6,0.9,0.6,1.5v3.5c0,0.6-0.2,1.1-0.6,1.5c-0.4,0.4-0.9,0.6-1.5,0.6
			h-4.2c-0.6,0-1.1-0.2-1.5-0.6s-0.6-0.9-0.6-1.4v-3.5c0-0.6,0.2-1.1,0.6-1.5C150.9,51.8,151.4,51.6,151.9,51.6z"/>
            <path class="st1" d="M171.4,60.6V36c0-1.1,0.4-2,1.2-2.8s1.7-1.2,2.8-1.2h12.8c1.1,0,2,0.4,2.7,1.2c0.8,0.8,1.2,1.7,1.2,2.8v24.6
			c0,1.1-0.4,2-1.2,2.8c-0.8,0.8-1.7,1.2-2.8,1.2h-12.8c-1.1,0-2-0.4-2.8-1.2C171.7,62.6,171.4,61.7,171.4,60.6z M188,60.4V36.2
			h-12.5v24.2C175.5,60.4,188,60.4,188,60.4z"/>
            <path class="st1" d="M207.4,51.6h4.2c0.6,0,1,0.2,1.4,0.6s0.6,0.9,0.6,1.5v3.5c0,0.6-0.2,1.1-0.6,1.5c-0.4,0.4-0.9,0.6-1.5,0.6
			h-4.2c-0.6,0-1.1-0.2-1.5-0.6s-0.6-0.9-0.6-1.4v-3.5c0-0.6,0.2-1.1,0.6-1.5C206.3,51.8,206.8,51.6,207.4,51.6z"/>
            <path class="st1" d="M228.8,60.4h6.3V36.2h-6.2c-0.6,0-1.1-0.2-1.5-0.6s-0.6-0.9-0.6-1.5s0.2-1.1,0.6-1.5c0.4-0.4,0.9-0.6,1.5-0.6
			h10.3v28.3h4.1v-8.6c0-0.6,0.2-1,0.6-1.4s0.9-0.6,1.5-0.6s1.1,0.2,1.5,0.6s0.6,0.9,0.6,1.5v10.6c0,0.6-0.2,1.1-0.6,1.5
			c-0.4,0.4-0.9,0.6-1.5,0.6h-16.6c-0.6,0-1.1-0.2-1.5-0.6c-0.4-0.4-0.6-0.9-0.6-1.5s0.2-1,0.6-1.4
			C227.8,60.6,228.3,60.4,228.8,60.4z"/>
	</g>
</g>
</svg>
